<?xml version="1.0" encoding="UTF-8"?>
<svg id="Layer_1" xmlns="http://www.w3.org/2000/svg" viewBox="0 0 450 320">
  <defs>
    <style>
      .cls-1 {
        fill: #f6f4f8;
      }

      .cls-2 {
        fill: #f8b30b;
      }

      .cls-3 {
        fill: #f51085;
      }

      .cls-4 {
        fill: #370569;
      }

      .cls-5 {
        fill: #37dfda;
      }
    </style>
  </defs>
  <path class="cls-4" d="M403.55,251.85c3.01,0,6.01,0,9.02,0,.56,0,1.12-.03,1.67.02,2.97.22,4.07,1.56,3.67,4.53-.52,3.87-1.08,7.74-1.62,11.6-.89,6.41-1.79,12.82-2.67,19.23-.56,4.09-2.19,5.55-6.29,5.55-1.51,0-3.02.07-4.52-.02-1.17-.07-1.85.25-1.77,1.52.09,1.53-.64,1.87-2.11,1.85-6.59-.09-13.18-.05-19.76-.03-2.63,0-4.99-.57-6.62-2.83-.31-.43-.69-.5-1.16-.49-.78.02-1.56,0-2.34,0-2.45,0-2.5,0-2.88,2.34-.13.8-.44.99-1.18.98-3.24-.03-6.48-.04-9.71,0-.98.01-1.23-.26-1.06-1.26.5-3.07.46-3.04-2.57-2.49-2.05.37-4.04.59-5.73,2.19-1.17,1.11-2.96,1.52-4.68,1.52-7.26.01-14.52,0-21.77.05-1.18,0-1.36-.48-1.06-1.41.52-1.6-.07-2.17-1.67-1.93-.44.06-.9.05-1.34,0-1.21-.12-1.7.25-1.19,1.51.58,1.43.13,1.92-1.46,1.85-3.01-.13-6.03-.08-9.04-.01-1.11.03-1.83-.14-1.77-1.45.08-1.64-.81-2.12-2.31-1.89-.55.08-1.11.01-1.67.01-2.43,0-2.46,0-2.97,2.41-.14.67-.38.92-1.08.91-3.29-.03-6.59-.05-9.88,0-1.14.02-1.09-.5-.97-1.35.09-.61.61-1.52-.15-1.82-1.08-.42-2.36-.37-3.45-.03-.69.21-.47,1.22-.32,1.82.3,1.28-.34,1.38-1.34,1.36-3.07-.04-6.14-.06-9.21,0-1.03.02-1.59-.19-1.47-1.34.06-.55-.03-1.11-.01-1.67.02-.54-.1-.93-.74-.73-2.41.77-4.88.31-7.32.38-.96.03-1.46.29-1.55,1.27-.16,1.7-1.07,2.21-2.79,2.12-3.21-.17-6.44-.05-9.78-.05.11-.47.16-.73.23-.99.72-2.48.72-2.41-1.87-2.35-1.38.03-1.28.9-1.13,1.69.25,1.37-.22,1.73-1.56,1.68-2.96-.09-5.92-.1-8.88,0-1.29.05-1.71-.37-1.57-1.59.06-.49-.02-1,0-1.5.01-.56-.15-.88-.78-.66-2.29.77-4.66.35-6.98.38-1.13.01-1.83.22-1.92,1.46-.12,1.49-.89,1.99-2.43,1.92-2.9-.14-5.81-.08-8.71-.02-1.14.02-1.47-.19-1.04-1.39.67-1.9.59-1.94-1.48-1.93-.73,0-1.46.08-2.18-.01-2.09-.26-3.73.09-4,2.61-.07.65-.52.73-1.09.73-3.52-.02-7.04-.03-10.55,0-.92,0-1.08-.38-1.11-1.2-.11-3.38-.3-6.75-.46-10.06-.5-.17-.68.05-.79.31-2.21,5.22-6.53,7.17-11.81,7.6-.74.06-1.36.11-1.95.69-1.88,1.84-4.17,2.68-6.81,2.66-4.97-.04-9.94-.02-14.91-.01-2.37,0-4.37-.79-5.83-2.7-.37-.49-.73-.7-1.39-.66-1.61.09-3.25.17-4.85.02-1.51-.14-2.22.49-2.4,1.85-.16,1.26-.83,1.53-2.03,1.52-6.48-.06-12.95-.07-19.43,0-1.4.02-1.99-.29-1.56-1.74.08-.26.05-.56.12-.83.34-1.25.07-1.78-1.36-1.38-1.23.34-2.49.64-3.79.59-.48-.02-.84.18-1.18.52-2.03,2.1-4.58,2.82-7.43,2.81-6.81-.02-13.62-.03-20.43.02-1.2,0-1.66-.29-1.26-1.5.5-1.52-.14-2.05-1.64-1.84-.44.06-.9.05-1.34,0-1.05-.12-1.65.28-1.57,1.37.13,1.77-.78,2.06-2.33,1.99-2.84-.13-5.69-.08-8.54-.01-1.17.03-1.38-.3-1.2-1.44.85-5.46,1.59-10.93,2.37-16.4.06-.42.25-.87-.13-1.33-.65.07-.6.67-.74,1.08-1.22,3.65-2.42,7.3-3.62,10.96-.8,2.46-2.47,3.74-5.09,3.81-1.67.04-3.35.06-5.02-.01-.99-.04-1.63.18-1.78,1.24-.25,1.76-1.26,2.22-3,2.12-2.95-.17-5.92-.07-8.87-.03-.95.01-1.33-.17-1.38-1.27-.58-12.31-1.1-24.62-1.9-36.91-1.4-21.5-1.75-43-1.68-64.54.14-47.65.05-95.3.05-142.95,0-2.68-.08-5.36,0-8.03.09-3.04,1.06-5.76,3.74-7.46,3.97-2.53,7.45-5.68,11.09-8.62,2.05-1.65,4.41-2.29,6.84-2.29,69.4-.04,138.8,0,208.2,0,47.9,0,95.81,0,143.71,0,.84,0,1.68,0,2.51-.02,5.67-.17,9.68,3.36,10.09,9.04.42,5.74.18,11.49.18,17.23.02,56.4,0,112.81.01,169.21,0,5.7-.65,11.35-1.07,17.01-.1,1.28-.1,2.56-.1,3.85,0,2.17-1.32,4.16-3.29,4.97-3.55,1.44-6.22,4.19-9.45,6.1.07.15.14.29.21.44ZM205.74,235.71c.05-1.11.05-2.22.15-3.32.09-1.03-.33-1.37-1.34-1.34-2.06.05-4.11.02-6.17.02q-4.73,0-4.34,4.67c.1,2.07.2,4.14.3,6.22.24,7.42.57,14.84,1.18,22.24-.18,2.54.2,5.04.44,7.56.21,5.44.41,10.88.61,16.32.03.86.64.96,1.28.96,3.4.02,6.79,0,10.19.02.61,0,1.05-.15,1.27-.81,1.8-5.48,3.78-10.91,5.36-16.46.82-2.51,1.64-5.02,2.46-7.52.13-.25.29-.48.37-.74,1.85-5.69,3.73-11.36,5.51-17.07.47-1.51,1.43-2.86,1.45-4.51.99-1.95,1.61-4.02,2.03-6.15.75-1.07.77-2.42,1.37-3.55.46-.88.16-1.18-.78-1.17-2.27.03-4.55.01-6.82.01q-4.67,0-5.32,4.67c-1.01,1.94-1.28,4.11-1.84,6.19-.67,2.3-1.38,4.59-2,6.9-1.36,5.11-2.96,10.16-4.07,15.34-.56.8-.33,1.99-1.29,2.63-.32-.89.24-1.78-.15-2.63.06-2.34.19-4.68.18-7.01-.03-5.07.28-10.14-.08-15.21.36-2.08.27-4.16.04-6.24ZM61.5,235.74c-1,1.95-1.3,4.1-1.82,6.19-2.18,7.37-4.29,14.76-6.08,22.24-.52.8-.44,1.89-1.42,3.03v-3c.06-2.27.18-4.54.16-6.8-.03-5.15.27-10.3-.09-15.45.35-2.07.28-4.14.03-6.21.05-1.17.07-2.33.14-3.5.05-.84-.27-1.2-1.15-1.19-3.28.03-6.56.03-9.85,0-.91,0-1.15.38-1.07,1.22.12,1.16.16,2.33.23,3.49-.21,2.07.22,4.11.24,6.16-.77,1.02.08,1.98.14,2.97.38,6.43.48,12.88,1.12,19.3-.16,2.54.18,5.05.41,7.56.22,5.45.44,10.9.65,16.36.04,1,.77.93,1.44.93,3.13,0,6.25-.06,9.38.03,1.23.03,1.84-.45,2.19-1.56.65-2.07,1.43-4.11,2.05-6.19.95-3.2,2.26-6.28,2.97-9.55.95-2.47,1.92-4.93,2.53-7.51,1.44-4.26,2.93-8.51,4.32-12.8,1.03-3.17,2.3-6.26,2.97-9.54,1-1.94,1.62-4.01,2.03-6.15.75-1.07.79-2.42,1.37-3.55.44-.86.19-1.19-.78-1.17-2.33.04-4.66.01-6.99.01q-4.52,0-5.15,4.67ZM77.82,235.72c-.52,2.03-.83,4.09-.83,6.19-1.34,7.38-2.32,14.81-3.13,22.26-.69,2.47-.79,5.02-1.04,7.55-1.17,5.39-1.55,10.9-2.48,16.33-.13.76.28.98.96.98,3.29,0,6.58,0,9.87,0,.64,0,1.05-.21,1.14-.92.7-5.46,1.68-10.88,2.15-16.38.46-2.51.92-5.01,1.1-7.56,1.16-7.4,2.26-14.81,3.08-22.25.49-2.04.77-4.11.87-6.21.19-1.15.34-2.3.58-3.44.2-.95-.07-1.28-1.08-1.25-2.16.07-4.32.02-6.48.02q-4.55,0-4.72,4.65ZM370.38,235.72c-.59,2.02-.87,4.09-.89,6.2-1.3,7.38-2.31,14.8-3.1,22.26-.69,2.47-.79,5.03-1.06,7.56-1.13,5.4-1.55,10.9-2.46,16.33-.19,1.13.63.96,1.27.97,3.07.01,6.14-.02,9.2.02.94.01,1.46-.23,1.54-1.26.08-1.05.31-2.09.44-3.14.53-4.31,1.38-8.57,1.69-12.91.35-2.52.7-5.03,1.06-7.55,1.19-7.4,2.3-14.81,3.1-22.26.49-2.04.77-4.1.87-6.19.19-1.15.33-2.31.6-3.44.24-.99-.07-1.27-1.05-1.25-2.22.06-4.45.02-6.67.02q-4.4,0-4.56,4.49c0,.05.02.11.03.16ZM234.05,235.74c-.99,1.94-1.53,4.03-2.04,6.13-1.41,4.15-2.85,8.29-4.21,12.45-1.07,3.27-2.03,6.57-3.04,9.85-1.14,2.41-1.65,5.03-2.5,7.54-1.76,5.34-3.5,10.68-5.3,16-.39,1.14-.01,1.35,1.02,1.34,3.07-.04,6.13-.06,9.2.01,1.14.03,1.59-.49,1.85-1.47.4-1.51.89-2.99,1.26-4.5.21-.87.65-1.18,1.52-1.16,1.89.04,3.79.05,5.69,0,.93-.03,1.31.3,1.29,1.25-.03,1.56.03,3.12.02,4.68,0,.82.25,1.22,1.15,1.21,3.23-.04,6.47-.04,9.7,0,.99.01,1.25-.4,1.16-1.32-.13-1.44-.19-2.89-.25-4.33-.15-3.89-.2-7.79-.63-11.66-.11-2.52.12-5.07-.4-7.57-.05-7.42-.46-14.82-.96-22.22.01-2.08-.03-4.16-.29-6.23-.01-1.06-.06-2.11-.03-3.17.03-1.1-.34-1.56-1.55-1.51-2.33.1-4.68.03-7.02.03q-4.64,0-5.66,4.67ZM271.03,235.75c-1,1.95-1.5,4.06-2.07,6.16-.64,1.83-1.31,3.64-1.9,5.48-1.8,5.59-3.56,11.19-5.34,16.79-1.07,2.45-1.69,5.05-2.46,7.59-2.06,5.29-3.47,10.79-5.34,16.14-.35,1,.22,1.14,1.02,1.13,3.12-.01,6.24-.03,9.36.01.89.01,1.3-.37,1.52-1.18.44-1.61,1.02-3.18,1.4-4.81.22-.93.62-1.32,1.58-1.3,1.89.05,3.79.06,5.68,0,1.04-.03,1.38.4,1.37,1.38-.02,1.56.07,3.12.02,4.68-.03.97.37,1.25,1.29,1.23,3.06-.04,6.13-.04,9.2,0,1.1.02,1.45-.39,1.39-1.48-.3-5.27-.54-10.55-.8-15.83-.06-2.53-.01-5.06-.39-7.57-.09-7.42-.46-14.84-.98-22.24.13-2.08-.07-4.15-.29-6.21-.01-1.16-.03-2.32-.04-3.49,0-.79-.29-1.19-1.18-1.18-3.55.04-7.1.04-10.65,0-.83-.01-1.25.37-1.45,1.06-.34,1.21-.63,2.43-.93,3.65ZM412.84,264.19c.38-2.42.73-4.84,1.15-7.25.18-1.04-.13-1.38-1.2-1.36-2.95.06-5.9.09-8.85-.01-1.19-.04-1.54.42-1.65,1.49-.25,2.38-.58,4.75-.89,7.12-.35,2.52-.7,5.04-1.05,7.56-.13.71-.29,1.42-.38,2.13-.68,4.9-.67,4.88-5.66,4.56-1.1-.07-1.43-.47-1.26-1.58.26-1.7.68-3.39.52-5.13.6-2.48,1.01-4.98,1.12-7.53,1.24-6.69,1.99-13.46,2.96-20.19.1-.72.18-1.44.64-2.04.72-.04,1.44-.11,2.16-.11,3.44-.01,6.88,0,10.32,0,.67,0,1.42.07,1.31-.98-.18-1.7.06-3.43-.38-5.12-.01-1.16-.03-2.33-.04-3.49,0-.78-.25-1.22-1.17-1.21-5.66.04-11.33-.09-16.99.09-2.97.1-5.24,1.64-6.31,4.6-.92,1.97-1.07,4.09-1.18,6.21-1.26,7.38-2.26,14.79-3.07,22.23-.66,2.48-.77,5.03-1.02,7.56-.65,3.78-1.43,7.54-1.45,11.4-.01,2.94,1.41,4.69,4.24,5.39.81.2,1.64.45,2.46.46,7.08.05,14.15.04,21.23.07.76,0,1.13-.33,1.22-1.06.65-5.41,1.69-10.77,2.13-16.21.47-2.52.93-5.03,1.09-7.59ZM129.71,235.72c-.55,2.03-.76,4.1-.83,6.19-1.33,7.39-2.37,14.81-3.1,22.28-.71,2.46-.8,5.01-1.06,7.53-1.01,5.37-1.57,10.8-2.38,16.2-.16,1.05.39,1.12,1.14,1.12,6.75,0,13.51,0,20.26,0,.67,0,1.18-.14,1.42-.87.93-2.86,1.87-5.72,2.86-8.56.38-1.08.04-1.36-1.04-1.34-3.18.05-6.36,0-9.54.04-1.09.01-1.46-.24-1.28-1.44.25-1.7.71-3.38.57-5.12.27-1.58.62-3.15.79-4.74.12-1.16.65-1.46,1.74-1.43,2.32.07,4.65,0,6.98.03.98.01,1.67-.2,1.43-1.4.72-2.39.54-4.92,1.11-7.34.21-.91-.18-1.35-1.26-1.3-2.28.1-4.57-.03-6.86.06-1.28.05-1.49-.42-1.31-1.58.61-4.02,1.12-8.06,1.67-12.09,3.83-.04,7.66-.11,11.48-.09,1.15,0,1.65-.32,1.51-1.51-.18-1.54-.29-3.08-.44-4.63-.01-1-.12-2.01-.01-3,.15-1.36-.37-1.7-1.68-1.68-5.86.06-11.72.03-17.59.03q-4.47,0-4.58,4.66ZM364.39,235.73c-.3-2.96-2.24-4.63-5.64-4.65-6.46-.04-12.92-.01-19.38-.02q-4.66,0-4.89,4.68c-.52,2.03-.77,4.09-.85,6.18-1.33,7.38-2.33,14.8-3.11,22.26-.74,2.47-.8,5.04-1,7.58-1.1,5.34-1.62,10.76-2.39,16.15-.14.96.39,1.13,1.18,1.13,7.02-.02,14.05.08,21.07-.06,3.64-.08,6.91-1.34,8.28-5.1,1.42-3.89,1.67-8.03,1.99-12.13.5-2.5,1.06-5,1.07-7.57,1.29-7.37,2.33-14.78,3.13-22.22.4-2.06,1.06-4.09.55-6.23ZM94.42,235.73c-.59,2.03-.76,4.12-.89,6.21-1.3,7.37-2.29,14.79-3.09,22.23-.68,2.48-.8,5.03-1.04,7.57-1.05,5.35-1.55,10.79-2.38,16.17-.15.96.43,1.13,1.2,1.13,7.02-.01,14.05.15,21.07-.07,5.49-.17,7.94-2.36,9.02-7.61.65-3.15,1.15-6.35,1.26-9.58.52-2.51.96-5.02,1.1-7.58.33-2.03.7-4.04.97-6.08.72-5.39,1.7-10.74,2.11-16.17.44-2.04,1.1-4.07.54-6.2-.28-2.94-2.26-4.65-5.62-4.67-6.57-.04-13.14-.01-19.71-.02q-4.48,0-4.54,4.67ZM329.19,235.72c-.07-1.73-1.03-2.89-2.45-3.7-1.34-.76-2.82-.96-4.34-.96-6.23.01-12.46,0-18.68,0q-4.46,0-4.54,4.66c-.54,2.01-.75,4.07-.86,6.14-1.33,7.4-2.3,14.84-3.11,22.31-.69,2.49-.77,5.07-1.07,7.61-.76,5.34-1.48,10.69-2.3,16.02-.17,1.12.33,1.24,1.17,1.23,2.12,0,4.24,0,6.35,0,4,0,4.06,0,4.65-4.01.65-4.4,1.19-8.82,1.77-13.23.15-.73.35-1.37,1.33-1.28.91.08.37.86.64,1.24.34,1.72.71,3.43,1.03,5.16.66,3.61,1.31,7.22,1.91,10.84.14.84.39,1.3,1.34,1.29,3.23-.04,6.47-.03,9.7,0,1.07,0,1.39-.46,1.18-1.45-1.09-5.27-2.18-10.55-3.26-15.83-.14-1.03.51-1.26,1.35-1.47,3.07-.79,4.63-2.95,4.58-6.18,1.35-7.35,2.27-14.76,3.18-22.17.28-2.07,1.13-4.09.44-6.23ZM159.89,235.73c-1,1.94-1.16,4.04-1.22,6.16-1.33,7.39-2.32,14.82-3.12,22.28-.66,2.48-.86,5.02-1.04,7.56-.49,3.25-1.11,6.49-1.43,9.75-.48,4.89,1.86,7.42,6.9,7.53,4.97.1,9.94.09,14.91,0,4.63-.08,7.68-2.26,8.73-6.37.91-3.56,1.35-7.22,1.54-10.89.48-2.49,1.01-4.98,1.06-7.53.32-1.91.71-3.82.96-5.75.72-5.51,1.72-10.98,2.17-16.52.49-2.05.97-4.1.49-6.23-.59-2.97-2.43-4.55-5.82-4.6-5.67-.1-11.35-.14-17.02.01-3.17.09-5.79,1.45-7.11,4.6ZM230.36,56.34h0c-8.15.01-16.3.01-24.45.01-50.9,0-101.81,0-152.71-.04-1.59,0-2.04.39-2.04,2,.04,50.55.02,101.11.05,151.66,0,4.68-.35,9.38.39,14.04.42,2.69.62,2.84,3.27,2.84,95.41,0,190.82.03,286.22-.61,21.94-.15,43.88-.27,65.82-.35,1.67,0,2.36-.73,2.46-2.23.14-2.05.32-4.11.32-6.17.02-33.81.01-67.63,0-101.44,0-19.36-.02-38.72.03-58.09,0-1.4-.43-1.75-1.71-1.65-1.22.1-2.45.02-3.68.02-57.99,0-115.98,0-173.98,0ZM248.51,48.9h0c26.46.01,52.92.01,79.39.01,26.74,0,53.48,0,80.22.02,1.25,0,1.65-.34,1.62-1.6-.08-3.68-.01-7.37-.05-11.05-.05-4.64-.2-4.76-4.84-4.76-68.68,0-137.36,0-206.04,0-36.52,0-73.03,0-109.55-.03-1.47,0-1.91.35-1.88,1.85.1,4.57.1,9.15,0,13.73-.03,1.48.36,1.86,1.86,1.86,53.09-.04,106.18-.04,159.27-.04ZM65.41,48.9s0,.01,0,.02c4.35,0,8.7-.01,13.04.01.9,0,1.45-.1,1.43-1.25-.06-4.96-.04-9.92-.01-14.88,0-.91-.26-1.29-1.24-1.29-8.42.03-16.84.05-25.25.02-1.59,0-2.2.72-2.19,2.21.02,4.62.03,9.25-.01,13.87,0,1.03.32,1.33,1.35,1.31,4.29-.06,8.58-.02,12.88-.02Z"/>
  <path class="cls-1" d="M230.36,56.34c57.99,0,115.98,0,173.98,0,1.23,0,2.46.08,3.68-.02,1.28-.1,1.71.25,1.71,1.65-.05,19.36-.03,38.72-.03,58.09,0,33.81,0,67.63,0,101.44,0,2.06-.18,4.11-.32,6.17-.1,1.5-.79,2.23-2.46,2.23-21.94.08-43.88.2-65.82.35-95.41.64-190.81.62-286.22.61-2.65,0-2.84-.16-3.27-2.84-.73-4.66-.39-9.36-.39-14.04-.03-50.55-.01-101.11-.05-151.66,0-1.61.45-2,2.04-2,50.9.05,101.81.04,152.71.04,8.15,0,16.3,0,24.45,0h0ZM315.89,134.39c0,11.1,0,22.2,0,33.3,0,8.66,5.9,14.61,14.6,14.64,15.01.05,30.03.03,45.04.07,4.75.01,8.84-1.61,12.34-4.76,4.39-3.97,6.96-9.1,8.91-14.54,5.6-15.61,6.58-31.55,3.1-47.77-1.46-6.79-3.39-13.41-7.36-19.24-4.05-5.93-9.47-9.49-16.89-9.5-15.07,0-30.14-.06-45.21-.05-8.6,0-14.52,5.96-14.53,14.53,0,11.1,0,22.2,0,33.3ZM144.38,134.53c0-11.05,0-22.1,0-33.15,0-8.83-5.84-14.74-14.65-14.75-14.68-.02-29.37.02-44.05.04-2.07,0-4.12.07-6.14.65-6.09,1.74-10.21,5.82-13.09,11.22-6.46,12.12-8.06,25.32-7.96,38.76.05,6.59,1.41,13.08,3.09,19.46,1.73,6.56,4,12.91,8.32,18.29,3.96,4.94,9,7.59,15.5,7.54,14.8-.12,29.59-.04,44.39-.08,8.69-.02,14.59-5.97,14.6-14.65,0-11.11,0-22.21,0-33.32ZM230.41,86.25c-20.43,0-40.87.14-61.3-.06-10.06-.1-16.75,7.69-16.64,16.56.27,21.09.09,42.18.09,63.28,0,1.28-.02,2.57.26,3.83,1.66,7.65,7.77,12.41,16.03,12.41,41.14,0,82.29,0,123.43,0,9.96,0,16.41-6.48,16.41-16.48.01-21.04,0-42.07,0-63.11,0-1.34,0-2.68-.3-4-1.68-7.64-7.73-12.42-15.86-12.42-20.71-.02-41.42,0-62.13,0ZM230.39,62.85c-18.48,0-36.96,0-55.43,0-37.74,0-75.47,0-113.21,0-.56,0-1.12.01-1.67-.02-.74-.04-.88.31-.95,1-.16,1.54.87,1.23,1.72,1.23,113.04,0,226.09,0,339.13,0,.74,0,1.67.4,1.71-1.08.04-1.5-.88-1.12-1.64-1.12-56.55,0-113.1,0-169.65,0ZM232.1,222.43c18.59,0,37.19,0,55.78,0,37.58,0,75.16,0,112.73,0,.56,0,1.12-.03,1.67.02.7.05.97-.21,1.04-.93.17-1.59-.89-1.34-1.83-1.34-112.9,0-225.8,0-338.7,0-.34,0-.67,0-1,0-.61-.01-.84.26-.94.89-.25,1.58.75,1.38,1.73,1.38,56.51,0,113.01,0,169.52,0ZM230.24,78.36c56.5,0,112.99,0,169.49,0,.28,0,.56-.02.84,0,.94.1,1.09-.4,1.09-1.22,0-1.48-1.07-1-1.79-1-112.71-.02-225.42-.01-338.13-.01-.61,0-1.23-.02-1.84,0-.86.02-.72.66-.74,1.21-.02.56.06,1.02.77,1.02.39,0,.78,0,1.17,0,56.38,0,112.77,0,169.15,0ZM232.07,217.98c56.27,0,112.54,0,168.82,0,.5,0,1.01-.02,1.51.01.79.05.91-.42.92-1.06.01-.69-.06-1.24-.96-1.19-.39.02-.78,0-1.17,0-112.66,0-225.31,0-337.97,0-.5,0-1,0-1.51,0-.81,0-.84.52-.84,1.13,0,.63.08,1.13.87,1.1.33-.01.67,0,1,0,56.44,0,112.88,0,169.32,0ZM232.29,211.35c-56.16,0-112.32,0-168.48,0-.61,0-1.23.03-1.84-.01-.92-.07-1.12.38-1.11,1.21.02,1.47,1.09,1,1.81,1,112.65.02,225.31.01,337.96.01.5,0,1.01-.05,1.51.01,1.05.13,1.21-.45,1.18-1.3-.04-1.36-1.04-.91-1.71-.91-56.44-.02-112.88-.01-169.32-.01ZM230.42,71.73c-56.17,0-112.34,0-168.52,0-.61,0-1.23.02-1.84-.01-.77-.04-.92.38-.92,1.04,0,.7.08,1.24.96,1.18.39-.02.78,0,1.17,0,112.79,0,225.58,0,338.37,0,.39,0,.78,0,1.17,0,.53,0,.77-.23.85-.79.19-1.44-.65-1.44-1.72-1.43-56.51.02-113.01.02-169.52.02ZM232.29,202.48c-56.22,0-112.44,0-168.66,0-.67,0-1.34-.02-2.01,0-.84.03-.7.67-.75,1.22-.05.58.04,1,.75.99.39,0,.78,0,1.17,0,112.72,0,225.44,0,338.16,0,.5,0,1.01,0,1.51,0,.66.02.81-.35.87-.95.15-1.45-.79-1.28-1.71-1.28-56.44,0-112.89,0-169.33,0ZM231.89,200.27c56.27,0,112.54,0,168.81,0,.5,0,1.01-.04,1.51.01.94.09,1.12-.39,1.11-1.21,0-1.46-1.06-1.01-1.8-1.01-112.88-.01-225.76-.01-338.63-.01-.33,0-.67.02-1,0-.84-.06-1,.4-1.03,1.13-.06,1.61,1.13,1.08,1.88,1.08,56.38.02,112.77.02,169.15.02ZM232.07,193.63c-56.44,0-112.88,0-169.32,0-.28,0-.56.02-.84,0-.83-.07-1.02.35-1.05,1.11-.07,1.6,1.09,1.11,1.86,1.11,112.94.02,225.87.02,338.81.02.28,0,.56-.01.84,0,.74.05.92-.34.97-1.02.11-1.5-.92-1.21-1.78-1.21-56.5,0-112.99,0-169.49,0ZM230.59,67.33c-56.28,0-112.55,0-168.83,0-.61,0-1.23,0-1.84,0-.71-.01-.78.43-.77,1,.01.58-.05,1.16.8,1.15.39,0,.78,0,1.17,0,112.83,0,225.67,0,338.5,0,.45,0,.89,0,1.34,0,.74-.03.69-.56.68-1.08,0-.52.03-1.04-.71-1.06-.39,0-.78,0-1.17,0-56.39,0-112.78,0-169.17,0ZM232.28,206.93c-56.22,0-112.44,0-168.66,0-.67,0-1.34-.01-2.01,0-.71.02-.73.52-.73,1.06,0,.53,0,1.04.7,1.1.39.03.78.01,1.17.01,112.61,0,225.22,0,337.83,0,.61,0,1.23-.01,1.84,0,.78.02.91-.44.9-1.08,0-.61-.06-1.14-.87-1.1-.33.01-.67,0-1,0-56.39,0-112.78,0-169.17,0ZM232.26,189.22c-56.11,0-112.22,0-168.34,0-.67,0-1.34.03-2.01-.01-.82-.05-1.03.35-1.05,1.1-.04,1.6,1.14,1.08,1.89,1.08,112.89.02,225.79.02,338.68.02.33,0,.67,0,1,0,.63,0,.82-.33.89-.94.15-1.47-.83-1.25-1.72-1.25-56.45,0-112.89,0-169.34,0ZM390.39,80.53l-.2.39c.71.6,1.14,1.54,2.34,1.53,2.68-.02,5.35,0,8.03,0,.61,0,1.09-.05,1.1-.87.01-.81-.32-1.07-1.1-1.06-3.39.03-6.78.01-10.17.01ZM64.88,80.54c-1.5,0-3,.03-4.5-.01-.79-.02-1.27.13-1.24,1.08.03.98.68.84,1.28.84,2.45,0,4.89-.03,7.34.02.87.02,1.49-.31,2.04-.91.22-.24.56-.44.34-.83-.17-.29-.49-.19-.75-.19-1.5,0-3,0-4.5,0ZM397.73,186.98c1.5,0,3,0,4.51,0,.62,0,1.08-.09,1.09-.89.01-.85-.41-1-1.15-.99-2.5.03-5.01.04-7.51,0-.82-.02-1.38.32-1.87.89-.17.2-.42.47-.39.67.07.44.5.33.82.33,1.5,0,3,0,4.51,0ZM68.19,182.9c-1.47-2.97-4.01-2.1-6.23-2.24-.79-.05-1.08.28-1.1,1.07-.02.86.26,1.2,1.15,1.18,2-.04,4-.01,6.18-.01ZM396.11,182.89c2.34,0,4.38,0,6.42,0,.69,0,.81-.45.78-1.01-.02-.49.1-1-.57-1.22-1.99-.65-4.99.24-6.63,2.23ZM394.38,84.69c1.19,1.83,5.41,2.99,6.9,2.09.56-.33.32-.89.35-1.36.03-.47-.23-.73-.7-.73-2.14,0-4.27,0-6.55,0ZM66.37,84.69c-2.33,0-4.38,0-6.42,0-.7,0-.84.4-.8.98.03.48-.12.98.58,1.2,2.09.64,5.05-.2,6.64-2.17ZM61.1,175.7c-.55,2.85-.14,3.26,2.54,2.54-.85-.85-1.68-1.67-2.54-2.54ZM400.52,178.36c2.95.33,3.28-.04,2.55-2.31-.76.69-1.56,1.41-2.55,2.31ZM401.43,91.91c.51-2.93.13-3.28-2.37-2.57.74.81,1.52,1.65,2.37,2.57ZM61.88,89.25c-2.89-.29-3.28.15-2.5,2.02.7-.57,1.5-1.21,2.5-2.02Z"/>
  <path class="cls-1" d="M248.51,48.9c-53.09,0-106.18,0-159.27.04-1.49,0-1.89-.38-1.86-1.86.1-4.57.1-9.15,0-13.73-.03-1.5.41-1.86,1.88-1.85,36.52.04,73.03.03,109.55.03,68.68,0,137.36,0,206.04,0,4.64,0,4.79.12,4.84,4.76.04,3.68-.03,7.37.05,11.05.03,1.26-.37,1.6-1.62,1.6-26.74-.03-53.48-.02-80.22-.02-26.46,0-52.92,0-79.39,0h0ZM247.84,43.83h0c47.23,0,94.46,0,141.7,0,3.63,0,7.26.03,10.89-.02,2.14-.03,3.71-1.56,3.76-3.51.05-1.98-1.58-3.57-3.77-3.67-.61-.03-1.23,0-1.84,0-85.08,0-170.17,0-255.25,0-15.69,0-31.38,0-47.06,0-1.2,0-2.37.08-3.28.96-1.08,1.05-1.57,2.29-1.02,3.79.64,1.72,1.92,2.45,4.3,2.45,50.53,0,101.05,0,151.58,0Z"/>
  <path class="cls-1" d="M295.2,264.18c.81-7.47,1.79-14.91,3.11-22.31,3.89.02,7.78.03,11.66.05-.7,5.3-1.39,10.6-2.12,15.9-.46,3.38-.49,3.38,2.85,3.38.5,0,1.01-.06,1.5,0,1.7.23,2.37-.54,2.58-2.2.72-5.69,1.56-11.37,2.36-17.05,3.87,0,7.74,0,11.6,0-.91,7.41-1.83,14.82-3.18,22.17-10.13.02-20.25.04-30.38.06Z"/>
  <path class="cls-3" d="M249.96,271.74c.43,3.88.48,7.77.63,11.66.06,1.44.12,2.89.25,4.33.08.92-.17,1.33-1.16,1.32-3.23-.04-6.47-.04-9.7,0-.9.01-1.16-.39-1.15-1.21.02-1.56-.05-3.12-.02-4.68.02-.94-.36-1.27-1.29-1.25-1.89.05-3.79.04-5.69,0-.87-.02-1.31.3-1.52,1.16-.37,1.51-.86,3-1.26,4.5-.26.98-.72,1.5-1.85,1.47-3.07-.07-6.13-.05-9.2-.01-1.04.01-1.41-.2-1.02-1.34,1.81-5.32,3.54-10.67,5.3-16,3.7.23,7.4.11,11.11.06.05.85.66.99,1.29.86,1.41-.3,3.13.86,4.25-.85,3.68-.01,7.36-.03,11.04-.04Z"/>
  <path class="cls-3" d="M119.57,271.77c-.11,3.24-.61,6.43-1.26,9.59-1.08,5.25-3.53,7.44-9.02,7.61-7.02.22-14.04.06-21.07.07-.77,0-1.35-.17-1.2-1.13.83-5.38,1.34-10.82,2.38-16.17,3.87,0,7.74.01,11.61.02-.25,1.98-.47,3.97-.77,5.94-.13.88.05,1.23,1.01,1.16,1.27-.09,2.56-.13,3.84-.04,1.39.1,1.87-.54,2.01-1.8.2-1.76.3-3.55.81-5.27,3.88,0,7.77,0,11.65,0Z"/>
  <path class="cls-3" d="M359.65,271.75c-.32,4.1-.57,8.24-1.99,12.13-1.37,3.76-4.64,5.02-8.28,5.1-7.02.15-14.05.05-21.07.06-.79,0-1.31-.17-1.18-1.13.77-5.39,1.29-10.81,2.39-16.15,3.84,0,7.67,0,11.51,0,.03,1.85-.35,3.66-.64,5.47-.18,1.1-.05,1.7,1.28,1.59,1.22-.1,2.45-.06,3.68-.01,1.09.04,1.58-.36,1.76-1.49.29-1.86.29-3.77.94-5.57,3.86,0,7.73,0,11.59,0Z"/>
  <path class="cls-3" d="M411.75,271.78c-.43,5.44-1.47,10.8-2.13,16.21-.09.73-.45,1.06-1.22,1.06-7.08-.03-14.15-.02-21.23-.07-.82,0-1.65-.26-2.46-.46-2.83-.7-4.25-2.45-4.24-5.39.02-3.85.8-7.62,1.45-11.39,3.88.14,7.77.19,11.65-.03.16,1.74-.26,3.43-.52,5.13-.17,1.11.16,1.51,1.26,1.58,4.99.32,4.99.34,5.66-4.56.1-.71.25-1.42.38-2.13,3.79.01,7.59.03,11.38.04Z"/>
  <path class="cls-3" d="M185.17,271.75c-.19,3.68-.63,7.34-1.54,10.9-1.05,4.11-4.11,6.29-8.73,6.37-4.97.09-9.94.1-14.91,0-5.04-.1-7.38-2.64-6.9-7.53.32-3.27.94-6.5,1.43-9.75,3.92.03,7.84.05,11.75.08-.22,1.82-.39,3.64-.68,5.45-.18,1.13.23,1.56,1.31,1.54,1.28-.01,2.56-.05,3.84,0,1.13.05,1.59-.51,1.74-1.56.25-1.81.57-3.62.85-5.43,3.95-.03,7.89-.06,11.84-.09Z"/>
  <path class="cls-3" d="M286.95,271.74c.26,5.28.5,10.56.8,15.83.06,1.1-.29,1.5-1.39,1.48-3.06-.04-6.13-.04-9.2,0-.91.01-1.31-.26-1.29-1.23.04-1.56-.05-3.12-.02-4.68.02-.98-.33-1.41-1.37-1.38-1.89.06-3.79.05-5.68,0-.96-.02-1.36.37-1.58,1.3-.39,1.62-.96,3.2-1.4,4.81-.22.82-.63,1.2-1.52,1.18-3.12-.04-6.24-.02-9.36-.01-.79,0-1.37-.13-1.02-1.13,1.87-5.35,3.28-10.85,5.34-16.14,3.68,0,7.36.01,11.04.02.09.46.29.85.83.85,1.26,0,2.52,0,3.78,0,.53,0,.74-.39.91-.81,3.71-.03,7.41-.06,11.12-.08Z"/>
  <path class="cls-1" d="M261.73,264.17c1.78-5.6,3.54-11.2,5.34-16.79.59-1.84,1.27-3.66,1.9-5.48,5.54.01,11.07.02,16.61.03.52,7.41.89,14.82.98,22.24-3.58.03-7.16.06-10.74.09,0-3.57,0-7.14,0-10.71-.1,0-.2-.01-.3-.02-1.03,3.56-2.05,7.11-3.08,10.67-3.57-.01-7.14-.02-10.71-.04Z"/>
  <path class="cls-1" d="M248.6,241.95c.5,7.4.91,14.8.96,22.23-3.53.01-7.07.02-10.6.04,0-3.52,0-7.05,0-10.57-.15,0-.29,0-.44.01-1.02,3.51-2.05,7.03-3.07,10.54-3.56,0-7.12-.02-10.68-.02,1.01-3.29,1.97-6.59,3.04-9.85,1.36-4.16,2.8-8.3,4.21-12.45,5.53.03,11.05.05,16.58.08Z"/>
  <path class="cls-1" d="M65.41,48.9c-4.29,0-8.58-.03-12.88.02-1.03.01-1.36-.28-1.35-1.31.04-4.62.03-9.25.01-13.87,0-1.49.6-2.22,2.19-2.21,8.42.03,16.84.02,25.25-.02.98,0,1.24.38,1.24,1.29-.03,4.96-.05,9.92.01,14.88.01,1.15-.53,1.26-1.43,1.25-4.35-.02-8.7-.01-13.04-.01,0,0,0-.01,0-.02ZM70.86,40.32c-.04-2.72-2.37-4.95-5.11-4.91-2.76.04-4.99,2.31-4.96,5.04.03,2.74,2.31,4.93,5.09,4.9,2.76-.03,5.02-2.31,4.97-5.03Z"/>
  <path class="cls-1" d="M125.78,264.2c.73-7.47,1.77-14.9,3.1-22.28,4.04.01,8.09.03,12.13.04-.55,4.03-1.07,8.07-1.67,12.09-.17,1.16.03,1.63,1.31,1.58,2.28-.09,4.58.04,6.86-.06,1.08-.05,1.47.39,1.26,1.3-.57,2.42-.39,4.95-1.11,7.34-7.29,0-14.58,0-21.88-.01Z"/>
  <path class="cls-3" d="M136.72,271.75c.13,1.74-.33,3.43-.57,5.12-.18,1.21.19,1.46,1.28,1.44,3.18-.04,6.36.02,9.54-.04,1.08-.02,1.42.26,1.04,1.34-.99,2.84-1.93,5.7-2.86,8.56-.24.73-.75.87-1.42.87-6.75,0-13.51,0-20.26,0-.74,0-1.3-.07-1.14-1.12.81-5.4,1.37-10.83,2.38-16.19,4,.17,8,.15,12.01.01Z"/>
  <path class="cls-1" d="M189.35,241.96c-.45,5.54-1.45,11.01-2.17,16.52-.25,1.92-.63,3.83-.96,5.75-3.97.02-7.95.03-11.92.05.26-1.92.53-3.84.79-5.76.75-5.54,1.49-11.09,2.24-16.63,4.01.03,8.01.05,12.02.08Z"/>
  <path class="cls-1" d="M155.55,264.18c.79-7.46,1.79-14.9,3.12-22.28,3.93.02,7.86.04,11.78.05-.08.77-.12,1.56-.25,2.32-.68,4.22-1.09,8.47-1.92,12.68-.47,2.36-.5,4.85-.97,7.25l-11.76-.02Z"/>
  <path class="cls-1" d="M398.29,241.96c-.46.6-.54,1.32-.64,2.04-.97,6.73-1.72,13.5-2.96,20.19-3.92,0-7.83,0-11.75-.01.81-7.44,1.81-14.85,3.07-22.23,4.09,0,8.18,0,12.27,0Z"/>
  <path class="cls-1" d="M363.85,241.96c-.8,7.44-1.83,14.85-3.12,22.22-3.88,0-7.76,0-11.65,0,.79-7.44,1.92-14.84,3.04-22.23,3.91,0,7.82,0,11.74.01Z"/>
  <path class="cls-1" d="M123.74,241.95c-.41,5.43-1.39,10.78-2.11,16.17-.27,2.03-.64,4.05-.97,6.08-3.9,0-7.81,0-11.71-.01.8-7.45,1.99-14.85,3.07-22.27,3.91.01,7.82.02,11.73.03Z"/>
  <path class="cls-1" d="M366.39,264.17c.79-7.45,1.79-14.88,3.1-22.26,3.89,0,7.78,0,11.67.01-.81,7.45-1.91,14.86-3.1,22.26-3.89,0-7.78-.01-11.67-.02Z"/>
  <path class="cls-1" d="M73.86,264.18c.81-7.45,1.79-14.88,3.13-22.26,3.88,0,7.77.02,11.65.03-.82,7.45-1.92,14.85-3.08,22.25-3.9,0-7.8,0-11.7-.01Z"/>
  <path class="cls-1" d="M330.53,264.19c.77-7.46,1.78-14.88,3.11-22.26,3.87,0,7.75,0,11.62,0-.84,7.45-1.96,14.85-3.09,22.26-3.88,0-7.76,0-11.64,0Z"/>
  <path class="cls-3" d="M214.69,271.77c-1.57,5.56-3.55,10.98-5.36,16.47-.22.66-.66.81-1.27.81-3.4-.01-6.79,0-10.19-.02-.63,0-1.25-.1-1.28-.96-.2-5.44-.41-10.88-.61-16.31,6.24,0,12.47.01,18.71.02Z"/>
  <path class="cls-1" d="M90.44,264.18c.8-7.44,1.79-14.86,3.09-22.23,3.88,0,7.75-.01,11.63-.02-.97,7.43-1.81,14.88-3.1,22.27-3.87,0-7.75-.01-11.62-.02Z"/>
  <path class="cls-3" d="M61.2,271.77c-.71,3.27-2.02,6.35-2.97,9.55-.62,2.08-1.39,4.12-2.05,6.19-.35,1.11-.95,1.59-2.19,1.56-3.12-.08-6.25-.03-9.38-.03-.67,0-1.4.07-1.44-.93-.22-5.45-.44-10.9-.65-16.36,6.23,0,12.45.01,18.68.02Z"/>
  <path class="cls-1" d="M42.11,264.19c-.65-6.42-.74-12.87-1.12-19.3-.06-.98-.91-1.95-.14-2.97,3.81,0,7.61.02,11.42.03.36,5.15.06,10.3.09,15.45.01,2.27-.1,4.54-.16,6.81-3.36,0-6.72-.01-10.08-.02Z"/>
  <path class="cls-1" d="M195.53,264.2c-.61-7.4-.94-14.82-1.18-22.24,3.78,0,7.57,0,11.35,0,.35,5.07.05,10.14.08,15.21.01,2.34-.11,4.67-.18,7.01-3.36,0-6.71.02-10.07.02Z"/>
  <path class="cls-1" d="M224.47,241.93c-.01,1.65-.98,3-1.45,4.51-1.77,5.71-3.66,11.38-5.51,17.07-.08.26-.25.5-.37.74-3.37-.03-6.73-.05-10.1-.08,1.11-5.18,2.71-10.23,4.07-15.34.61-2.31,1.33-4.6,2-6.9,3.79,0,7.58,0,11.36,0Z"/>
  <path class="cls-1" d="M71.02,241.92c-.67,3.28-1.94,6.37-2.97,9.54-1.39,4.28-2.88,8.53-4.32,12.8-3.38-.03-6.75-.06-10.12-.09,1.79-7.48,3.9-14.87,6.08-22.24,3.78,0,7.56,0,11.33,0Z"/>
  <path class="cls-2" d="M295.2,264.18c10.13-.02,20.25-.04,30.38-.06.05,3.24-1.51,5.4-4.58,6.18-.84.21-1.49.44-1.35,1.47-3.96,0-7.93,0-11.9,0-.27-.38.27-1.16-.64-1.24-.97-.09-1.18.55-1.33,1.29-3.88,0-7.77-.01-11.65-.02.3-2.54.38-5.12,1.07-7.61Z"/>
  <path class="cls-3" d="M84.47,271.75c-.47,5.49-1.45,10.91-2.15,16.38-.09.71-.5.92-1.14.92-3.29,0-6.58,0-9.87,0-.68,0-1.09-.22-.96-.98.93-5.43,1.31-10.94,2.48-16.33,3.88.17,7.76.14,11.65.02Z"/>
  <path class="cls-3" d="M377.01,271.75c-.31,4.34-1.16,8.6-1.69,12.91-.13,1.05-.36,2.09-.44,3.14-.08,1.03-.6,1.27-1.54,1.26-3.07-.04-6.14,0-9.2-.02-.64,0-1.46.16-1.27-.97.91-5.43,1.33-10.94,2.46-16.33,3.89.16,7.78.15,11.68,0Z"/>
  <path class="cls-3" d="M307.75,271.77c3.97,0,7.93,0,11.9,0,1.09,5.27,2.17,10.55,3.26,15.82.2.99-.12,1.46-1.18,1.45-3.23-.03-6.47-.03-9.7,0-.95.01-1.2-.45-1.34-1.29-.6-3.62-1.25-7.23-1.91-10.84-.31-1.72-.68-3.44-1.03-5.16Z"/>
  <path class="cls-3" d="M294.13,271.79c3.88,0,7.77.01,11.65.02-.59,4.41-1.12,8.83-1.77,13.23-.59,4.02-.65,4.01-4.65,4.01-2.12,0-4.24,0-6.35,0-.84,0-1.34-.12-1.17-1.23.81-5.33,1.54-10.68,2.3-16.02Z"/>
  <path class="cls-5" d="M170.45,241.95c-3.93-.02-7.86-.04-11.78-.05.06-2.12.22-4.22,1.22-6.16,9.98,0,19.97,0,29.95-.01.49,2.13,0,4.18-.49,6.23-4.01-.03-8.01-.05-12.02-.08-1.3-.99-5.47-.95-6.88.07Z"/>
  <path class="cls-5" d="M309.98,241.92c-3.89-.02-7.78-.03-11.66-.05.11-2.07.32-4.13.86-6.14,10.01,0,20.01,0,30.02-.01.69,2.14-.15,4.16-.44,6.23-3.87,0-7.74,0-11.6,0-.36-.23-.57-.71-1.07-.71-1.76-.01-3.51-.01-5.27,0-.46,0-.64.36-.84.69Z"/>
  <path class="cls-5" d="M105.16,241.93c-3.88,0-7.75.01-11.63.02.14-2.09.3-4.18.89-6.21,9.95,0,19.91.01,29.86.02.56,2.13-.1,4.15-.54,6.2-3.91-.01-7.82-.02-11.73-.04-.25-.3-.48-.65-.91-.66-1.71-.03-3.42-.02-5.13-.04-.5,0-.56.47-.83.72Z"/>
  <path class="cls-5" d="M345.26,241.94c-3.87,0-7.75,0-11.62,0,.08-2.09.33-4.15.85-6.18,9.97,0,19.93-.01,29.9-.02.51,2.14-.15,4.17-.55,6.23-3.91,0-7.82,0-11.74-.01-.2-.34-.44-.69-.87-.69-1.72-.03-3.43-.04-5.15-.04-.46,0-.64.38-.83.72Z"/>
  <path class="cls-2" d="M207.04,264.17c3.37.03,6.73.05,10.1.08-.82,2.51-1.64,5.02-2.45,7.52-6.24,0-12.47-.01-18.71-.02-.25-2.51-.62-5.02-.45-7.56,3.36,0,6.71-.02,10.07-.02.39.84-.18,1.74.15,2.63.96-.64.73-1.83,1.29-2.63Z"/>
  <path class="cls-5" d="M398.29,241.96c-4.09,0-8.18,0-12.27,0,.11-2.12.25-4.24,1.18-6.21,8.17,0,16.33,0,24.5,0,.44,1.68.2,3.41.38,5.12.11,1.05-.64.98-1.31.98-3.44,0-6.88,0-10.32,0-.72,0-1.44.07-2.16.11Z"/>
  <path class="cls-2" d="M53.6,264.18c3.37.03,6.75.06,10.12.09-.62,2.58-1.58,5.04-2.53,7.51-6.23,0-12.45-.01-18.68-.02-.23-2.52-.56-5.03-.41-7.57,3.36,0,6.72.01,10.08.01,0,.85,0,1.7,0,3,.97-1.14.89-2.22,1.42-3.03Z"/>
  <path class="cls-5" d="M141.01,241.96c-4.04-.01-8.09-.03-12.13-.04.08-2.09.29-4.16.83-6.19,7.95,0,15.9,0,23.86,0,.14,1.54.26,3.09.44,4.63.14,1.19-.36,1.52-1.51,1.51-3.83-.02-7.65.05-11.48.09Z"/>
  <path class="cls-1" d="M364.39,235.73c-9.97,0-19.93.01-29.9.02q.23-4.68,4.89-4.68c6.46,0,12.92-.03,19.38.02,3.4.02,5.34,1.69,5.64,4.65Z"/>
  <path class="cls-1" d="M329.19,235.72c-10.01,0-20.01,0-30.02.01q.08-4.66,4.54-4.66c6.23,0,12.46,0,18.68,0,1.53,0,3.01.2,4.34.96,1.42.81,2.38,1.97,2.45,3.7Z"/>
  <path class="cls-1" d="M124.29,235.75c-9.95,0-19.91,0-29.86-.02q.05-4.67,4.54-4.67c6.57,0,13.14-.03,19.71.02,3.36.02,5.34,1.72,5.62,4.67Z"/>
  <path class="cls-1" d="M189.84,235.72c-9.98,0-19.97,0-29.95.01,1.32-3.15,3.94-4.51,7.11-4.6,5.67-.16,11.35-.11,17.02-.01,3.39.06,5.23,1.64,5.82,4.6Z"/>
  <path class="cls-1" d="M153.57,235.73c-7.95,0-15.9,0-23.86,0q.11-4.66,4.58-4.66c5.86,0,11.72.03,17.59-.03,1.31-.01,1.83.33,1.68,1.68-.11.99,0,2,.01,3Z"/>
  <path class="cls-2" d="M136.72,271.75c-4,.13-8.01.16-12.01-.01.26-2.53.36-5.07,1.06-7.53,7.29,0,14.58,0,21.88.01.25,1.2-.44,1.41-1.43,1.4-2.33-.02-4.65.03-6.98-.03-1.08-.03-1.61.27-1.74,1.43-.17,1.59-.52,3.16-.79,4.74Z"/>
  <path class="cls-1" d="M411.7,235.75c-8.17,0-16.33,0-24.5,0,1.06-2.96,3.33-4.5,6.31-4.6,5.66-.18,11.33-.05,16.99-.09.92,0,1.16.43,1.17,1.21,0,1.16.03,2.33.04,3.49Z"/>
  <path class="cls-1" d="M401.42,264.18c.3-2.37.63-4.74.89-7.12.11-1.06.46-1.53,1.65-1.49,2.95.1,5.9.07,8.85.01,1.07-.02,1.38.32,1.2,1.36-.42,2.41-.77,4.83-1.16,7.25-3.81,0-7.62,0-11.43-.01Z"/>
  <path class="cls-5" d="M285.58,241.93c-5.54-.01-11.07-.02-16.61-.03.57-2.09,1.06-4.21,2.07-6.16,4.75,0,9.5-.02,14.25-.03.22,2.07.42,4.13.29,6.21Z"/>
  <path class="cls-5" d="M248.6,241.95c-5.53-.03-11.05-.05-16.58-.08.51-2.1,1.05-4.19,2.04-6.13,4.75,0,9.51-.02,14.26-.02.26,2.07.3,4.15.29,6.23Z"/>
  <path class="cls-2" d="M155.55,264.18c3.92,0,7.84.02,11.76.02-.11,2.57-.68,5.08-1.05,7.62-3.92-.03-7.84-.05-11.75-.08.18-2.54.38-5.08,1.04-7.56Z"/>
  <path class="cls-2" d="M174.31,264.27c3.97-.02,7.95-.03,11.92-.05-.05,2.55-.58,5.04-1.06,7.53-3.95.03-7.89.06-11.84.08.33-2.52.65-5.04.98-7.57Z"/>
  <path class="cls-2" d="M84.47,271.75c-3.88.12-7.76.16-11.65-.02.25-2.53.35-5.08,1.04-7.55,3.9,0,7.8,0,11.7.01-.18,2.55-.63,5.05-1.1,7.56Z"/>
  <path class="cls-2" d="M382.95,264.18c3.92,0,7.83,0,11.75.01-.1,2.55-.52,5.05-1.11,7.53-3.88.21-7.76.16-11.65.02.24-2.53.36-5.08,1.02-7.56Z"/>
  <path class="cls-2" d="M349.07,264.18c3.88,0,7.76,0,11.65,0,0,2.57-.57,5.07-1.07,7.57-3.86,0-7.73,0-11.59,0,.17-2.55.43-5.09,1.01-7.58Z"/>
  <path class="cls-2" d="M377.01,271.75c-3.89.14-7.78.15-11.68,0,.28-2.53.37-5.09,1.06-7.56,3.89,0,7.78.01,11.67.02-.35,2.52-.7,5.03-1.06,7.55Z"/>
  <path class="cls-2" d="M108.95,264.18c3.9,0,7.81,0,11.71.01-.13,2.56-.58,5.08-1.1,7.58-3.88,0-7.77,0-11.65,0,.34-2.53.69-5.06,1.03-7.58Z"/>
  <path class="cls-2" d="M90.44,264.18c3.87,0,7.75.01,11.62.02-.11,2.55-.67,5.05-1.05,7.56-3.87,0-7.74-.01-11.61-.02.24-2.54.36-5.09,1.04-7.57Z"/>
  <path class="cls-2" d="M330.53,264.19c3.88,0,7.76,0,11.64,0-.24,2.54-.61,5.07-1.14,7.57-3.84,0-7.67,0-11.51,0,.2-2.55.26-5.11,1-7.58Z"/>
  <path class="cls-2" d="M401.42,264.18c3.81,0,7.62,0,11.43.01-.17,2.56-.62,5.08-1.09,7.59-3.79-.01-7.59-.03-11.38-.04.35-2.52.7-5.04,1.05-7.56Z"/>
  <path class="cls-2" d="M275.82,264.27c3.58-.03,7.16-.06,10.74-.09.38,2.51.33,5.04.39,7.57-3.71.03-7.41.05-11.12.08,0-2.52,0-5.04-.01-7.55Z"/>
  <path class="cls-2" d="M238.96,264.21c3.53-.01,7.07-.02,10.6-.04.52,2.5.29,5.05.4,7.57-3.68.01-7.36.03-11.04.04-.08-2.52-.28-5.05.05-7.57Z"/>
  <path class="cls-2" d="M224.77,264.18c3.56,0,7.12.02,10.68.02-.47,2.59-1.37,5.06-2.07,7.58-3.7.05-7.41.16-11.11-.06.85-2.51,1.36-5.13,2.51-7.54Z"/>
  <path class="cls-2" d="M261.73,264.17c3.57.01,7.14.02,10.71.04-.5,2.58-1.34,5.07-2.13,7.58-3.68,0-7.36-.01-11.04-.02.77-2.55,1.39-5.15,2.46-7.6Z"/>
  <path class="cls-5" d="M381.17,241.93c-3.89,0-7.78,0-11.67-.01.02-2.11.3-4.17.89-6.2,3.89,0,7.77.01,11.66.02-.1,2.09-.38,4.15-.87,6.19Z"/>
  <path class="cls-5" d="M88.65,241.94c-3.88,0-7.77-.02-11.65-.03,0-2.1.31-4.16.83-6.19,3.9,0,7.8,0,11.7.01-.1,2.1-.39,4.17-.87,6.21Z"/>
  <path class="cls-5" d="M52.26,241.95c-3.81-.01-7.61-.02-11.42-.03-.02-2.06-.45-4.1-.24-6.16,3.9,0,7.79-.01,11.69-.02.25,2.07.33,4.14-.03,6.21Z"/>
  <path class="cls-5" d="M71.02,241.92c-3.78,0-7.56,0-11.33,0,.52-2.09.82-4.24,1.82-6.19,3.85.01,7.7.02,11.55.03-.41,2.14-1.03,4.2-2.03,6.15Z"/>
  <path class="cls-5" d="M224.47,241.93c-3.79,0-7.58,0-11.36,0,.55-2.08.83-4.24,1.84-6.19,3.85.01,7.7.02,11.55.04-.42,2.13-1.04,4.2-2.03,6.15Z"/>
  <path class="cls-5" d="M205.7,241.95c-3.78,0-7.57,0-11.35,0-.1-2.07-.2-4.14-.3-6.22,3.9,0,7.8-.02,11.69-.03.23,2.08.33,4.16-.04,6.24Z"/>
  <path class="cls-1" d="M248.31,235.72c-4.75,0-9.51.02-14.26.02q1.02-4.67,5.66-4.67c2.34,0,4.68.07,7.02-.03,1.21-.05,1.58.42,1.55,1.51-.03,1.05.02,2.11.03,3.17Z"/>
  <path class="cls-1" d="M285.29,235.72c-4.75,0-9.5.02-14.25.03.31-1.22.59-2.44.93-3.65.2-.69.61-1.07,1.45-1.06,3.55.05,7.1.04,10.65,0,.9,0,1.18.39,1.18,1.18,0,1.16.03,2.32.04,3.49Z"/>
  <path class="cls-1" d="M73.05,235.78c-3.85-.01-7.7-.02-11.55-.03q.63-4.67,5.15-4.67c2.33,0,4.66.03,6.99-.01.97-.02,1.22.3.78,1.17-.58,1.14-.62,2.48-1.37,3.55Z"/>
  <path class="cls-1" d="M226.49,235.78c-3.85-.01-7.7-.02-11.55-.04q.65-4.67,5.32-4.67c2.27,0,4.55.02,6.82-.01.94-.01,1.24.29.78,1.17-.59,1.13-.62,2.48-1.37,3.55Z"/>
  <path class="cls-1" d="M89.52,235.73c-3.9,0-7.8,0-11.7-.01q.17-4.65,4.72-4.65c2.16,0,4.33.05,6.48-.02,1.01-.03,1.28.3,1.08,1.25-.24,1.14-.39,2.29-.58,3.44Z"/>
  <path class="cls-1" d="M382.04,235.74c-3.89,0-7.77-.01-11.66-.02-.01-.05-.04-.11-.03-.16q.17-4.49,4.56-4.49c2.22,0,4.45.04,6.67-.02.99-.03,1.29.26,1.05,1.25-.27,1.13-.4,2.29-.6,3.44Z"/>
  <path class="cls-1" d="M205.74,235.71c-3.9,0-7.8.02-11.69.03q-.39-4.67,4.34-4.67c2.06,0,4.11.04,6.17-.02,1.01-.03,1.43.31,1.34,1.34-.1,1.1-.11,2.21-.15,3.32Z"/>
  <path class="cls-1" d="M52.28,235.74c-3.9,0-7.79.01-11.69.02-.07-1.16-.11-2.33-.23-3.49-.09-.84.16-1.23,1.07-1.22,3.28.03,6.56.03,9.85,0,.88,0,1.2.35,1.15,1.19-.07,1.16-.1,2.33-.14,3.5Z"/>
  <path class="cls-4" d="M315.89,134.39c0-11.1,0-22.2,0-33.3,0-8.56,5.93-14.52,14.53-14.53,15.07,0,30.14.04,45.21.05,7.42,0,12.84,3.56,16.89,9.5,3.97,5.82,5.9,12.44,7.36,19.24,3.49,16.22,2.51,32.16-3.1,47.77-1.95,5.44-4.52,10.57-8.91,14.54-3.5,3.16-7.59,4.78-12.34,4.76-15.01-.04-30.03-.02-45.04-.07-8.7-.03-14.6-5.98-14.6-14.64,0-11.1,0-22.2,0-33.3ZM362.62,133.05c.1-1.92-.32-5.04-1.06-8.13-2.49-10.42-8.15-18.72-17.01-24.7-4.34-2.93-8.9-5.52-14.56-4.93-3.19.33-5.27,2.26-5.32,5.48-.01.67,0,1.34,0,2.01,0,2.59-.02,2.66,2.45,3.17,6.32,1.31,11.59,4.36,15.93,9.13,4.6,5.06,6.94,11.05,7.36,17.78.27,4.37-.49,8.64-2.33,12.63-4.44,9.64-11.83,15.51-22.41,17.16-.82.13-1.03.43-1.01,1.16.03,1.62-.05,3.24.04,4.85.13,2.35,1.77,4.29,4.06,4.7,1.92.34,3.91.43,5.79-.2,6.23-2.08,11.79-5.39,16.32-10.12,7.66-8,11.7-17.57,11.74-30ZM367.91,95.45c9.27,11.56,14.1,24.46,14.04,39.05-.06,14.64-5.05,27.52-14.49,39.1,3.08,0,5.79,0,8.5,0,1.85,0,3.51-.59,5-1.66,1.8-1.3,3.21-2.96,4.26-4.88,6.02-11.02,8.06-22.96,7.84-35.34-.09-5.41-.96-10.77-2.16-16.06-1.21-5.36-2.81-10.58-6.05-15.11-2.05-2.86-4.65-5.01-8.41-5.08-2.73-.05-5.46,0-8.53,0ZM346.48,173.58c4.45,0,8.91,0,13.36,0,.77,0,1.25-.42,1.69-.93,1.68-1.93,3.42-3.82,4.91-5.92,9.17-12.93,12.38-27.26,9.58-42.8-1.87-10.37-6.55-19.46-13.72-27.26-.89-.97-1.74-1.35-3.01-1.32-3.74.07-7.48.01-11.22.02-.34,0-.79-.28-1.01.28,13.37,9.58,20.79,22.44,20.61,39.04-.18,16.53-7.74,29.28-21.18,38.88ZM324.65,151.91c0,1.45.06,2.9-.02,4.35-.06,1.11.42,1.39,1.4,1.18,13.18-2.72,21.33-15.16,18.74-27.61-2.1-10.1-8.6-16.31-18.64-18.78-1.13-.28-1.52.09-1.5,1.23.04,2.84.05,5.69,0,8.53-.02.93.31,1.31,1.17,1.68,5.42,2.36,8.38,6.33,8.16,12.46-.15,4.34-2.06,7.93-5.76,9.66-3.21,1.51-4.02,3.4-3.55,6.47.04.27,0,.56,0,.84ZM324.66,134.2h0c0,1.83,0,3.66,0,5.5,0,.32-.13.7.22.91.43.25.72-.11,1.03-.32,4.16-2.81,4.08-9.54-.12-12.2-.87-.55-1.16-.41-1.15.62.03,1.83,0,3.66,0,5.5Z"/>
  <path class="cls-4" d="M144.38,134.53c0,11.11,0,22.21,0,33.32,0,8.68-5.91,14.63-14.6,14.65-14.8.04-29.59-.04-44.39.08-6.5.05-11.54-2.6-15.5-7.54-4.32-5.38-6.58-11.72-8.32-18.29-1.68-6.38-3.04-12.88-3.09-19.46-.1-13.44,1.5-26.64,7.96-38.76,2.88-5.41,7.01-9.48,13.09-11.22,2.01-.58,4.07-.65,6.14-.65,14.68-.01,29.37-.05,44.05-.04,8.81,0,14.65,5.93,14.65,14.75,0,11.05,0,22.1,0,33.15ZM97.78,134.26c-.05,2.63.17,5.2.74,7.78,3.43,15.62,12.69,26.1,27.81,31.21,5.59,1.89,9.9-.66,9.27-6.49-.03-.28,0-.56,0-.84,0-2.97.01-3.03-2.86-3.59-15.03-2.94-25.73-18.71-22.06-34.1,2.7-11.28,9.7-18.44,20.74-21.86,1.4-.43,3.63.49,4.11-1.64.36-1.59.18-3.35-.04-5-.25-1.97-1.43-3.5-3.37-3.99-2.44-.62-5.06-.78-7.44.02-5.79,1.95-10.89,5.21-15.11,9.6-7.72,8.05-11.78,17.67-11.79,28.89ZM93.17,173.74c-.77-.92-1.36-1.57-1.89-2.26-3.52-4.57-6.4-9.5-8.55-14.85-2.6-6.48-4.02-13.22-4.31-20.18-.11-2.6.02-5.2.27-7.82.44-4.71,1.43-9.27,2.91-13.72,2.22-6.66,5.66-12.67,9.9-18.24.22-.29.72-.49.52-.95-.2-.47-.69-.23-1.05-.24-2.01-.02-4.02.05-6.03,0-3.5-.1-6.24,1.34-8.47,3.95-2.9,3.39-4.52,7.43-5.74,11.61-4.53,15.43-4.65,30.88.16,46.29,1.45,4.65,3.18,9.18,6.47,12.91,1.72,1.95,3.77,3.39,6.44,3.49,3,.11,6,.03,9.37.03ZM113.09,95.44c-2.59,0-5.21-.21-7.77-.06-4.38.25-7.58,1.14-10.31,4.84-9.82,13.33-13.52,28.06-10.63,44.31,1.92,10.79,6.98,20.12,14.46,28.14.74.8,1.53,1.12,2.63,1.11,3.96-.06,7.92,0,11.88-.01.34,0,.78.25,1.02-.25-29.21-18.36-28.21-59.7-1.27-78.08ZM135.59,116.62h0c0-1.56-.02-3.13,0-4.69.01-.84-.36-1.08-1.15-.92-13.36,2.68-21.5,15.43-18.76,27.9,2.16,9.83,8.41,15.93,18.21,18.41,1.45.37,1.75-.06,1.71-1.41-.07-2.68-.07-5.36,0-8.03.03-1.04-.27-1.6-1.25-2.02-5.37-2.31-8.07-6.31-7.9-12.28.13-4.29,1.96-7.89,5.57-9.62,3.29-1.58,4.02-3.56,3.55-6.66-.03-.22,0-.45,0-.67ZM135.6,134.34h0c0-1.84,0-3.67,0-5.51,0-.32.14-.72-.19-.92-.42-.25-.72.14-1.02.35-4.02,2.83-3.97,9.3.08,12.03.27.18.53.46.89.28.37-.19.23-.58.23-.89,0-1.78,0-3.56,0-5.34Z"/>
  <path class="cls-4" d="M230.39,62.85c56.55,0,113.1,0,169.65,0,.76,0,1.68-.38,1.64,1.12-.04,1.48-.97,1.08-1.71,1.08-113.04.01-226.09.01-339.13,0-.85,0-1.87.31-1.72-1.23.07-.7.21-1.05.95-1,.56.03,1.12.02,1.67.02,37.74,0,75.47,0,113.21,0,18.48,0,36.95,0,55.43,0Z"/>
  <path class="cls-4" d="M232.1,222.43c-56.51,0-113.01,0-169.52,0-.97,0-1.98.2-1.73-1.38.1-.63.33-.9.94-.89.33,0,.67,0,1,0,112.9,0,225.8,0,338.7,0,.94,0,2-.25,1.83,1.34-.08.72-.34.99-1.04.93-.56-.04-1.12-.02-1.67-.02-37.58,0-75.16,0-112.73,0-18.59,0-37.19,0-55.78,0Z"/>
  <path class="cls-4" d="M230.24,78.36c-56.38,0-112.77,0-169.15,0-.39,0-.78,0-1.17,0-.71,0-.79-.46-.77-1.02.02-.55-.11-1.19.74-1.21.61-.01,1.23,0,1.84,0,112.71,0,225.42,0,338.13.01.72,0,1.79-.48,1.79,1,0,.81-.16,1.31-1.09,1.22-.28-.03-.56,0-.84,0-56.5,0-112.99,0-169.49,0Z"/>
  <path class="cls-4" d="M232.07,217.98c-56.44,0-112.88,0-169.32,0-.33,0-.67,0-1,0-.79.03-.87-.47-.87-1.1,0-.61.03-1.14.84-1.13.5,0,1,0,1.51,0,112.66,0,225.31,0,337.97,0,.39,0,.78.02,1.17,0,.9-.06.97.5.96,1.19,0,.64-.13,1.11-.92,1.06-.5-.03-1-.01-1.51-.01-56.27,0-112.54,0-168.82,0Z"/>
  <path class="cls-4" d="M232.29,211.35c56.44,0,112.88,0,169.32.01.67,0,1.68-.45,1.71.91.02.85-.13,1.44-1.18,1.3-.49-.06-1-.01-1.51-.01-112.65,0-225.31,0-337.96-.01-.72,0-1.79.47-1.81-1,0-.83.19-1.28,1.11-1.21.61.05,1.23.01,1.84.01,56.16,0,112.32,0,168.48,0Z"/>
  <path class="cls-4" d="M230.42,71.73c56.51,0,113.01,0,169.52-.02,1.07,0,1.91,0,1.72,1.43-.07.56-.31.79-.85.79-.39,0-.78,0-1.17,0-112.79,0-225.58,0-338.37,0-.39,0-.78-.02-1.17,0-.89.05-.97-.48-.96-1.18,0-.67.15-1.08.92-1.04.61.03,1.23.01,1.84.01,56.17,0,112.34,0,168.52,0Z"/>
  <path class="cls-4" d="M232.29,202.48c56.44,0,112.89,0,169.33,0,.92,0,1.86-.17,1.71,1.28-.06.59-.21.96-.87.95-.5-.01-1,0-1.51,0-112.72,0-225.44,0-338.16,0-.39,0-.78,0-1.17,0-.71.01-.8-.41-.75-.99.04-.55-.09-1.19.75-1.22.67-.02,1.34,0,2.01,0,56.22,0,112.44,0,168.66,0Z"/>
  <path class="cls-4" d="M231.89,200.27c-56.38,0-112.77,0-169.15-.02-.75,0-1.94.54-1.88-1.08.03-.74.19-1.19,1.03-1.13.33.02.67,0,1,0,112.88,0,225.76,0,338.63.01.73,0,1.79-.44,1.8,1.01,0,.81-.18,1.3-1.11,1.21-.5-.05-1-.01-1.51-.01-56.27,0-112.54,0-168.81,0Z"/>
  <path class="cls-4" d="M232.07,193.63c56.5,0,112.99,0,169.49,0,.86,0,1.89-.29,1.78,1.21-.05.68-.23,1.07-.97,1.02-.28-.02-.56,0-.84,0-112.94,0-225.87,0-338.81-.02-.77,0-1.93.5-1.86-1.11.03-.75.23-1.18,1.05-1.11.28.02.56,0,.84,0,56.44,0,112.88,0,169.32,0Z"/>
  <path class="cls-4" d="M230.59,67.33c56.39,0,112.78,0,169.17,0,.39,0,.78,0,1.17,0,.74.01.7.54.71,1.06,0,.52.06,1.05-.68,1.08-.45.02-.89,0-1.34,0-112.83,0-225.67,0-338.5,0-.39,0-.78,0-1.17,0-.85.01-.78-.57-.8-1.15-.01-.57.06-1.01.77-1,.61,0,1.23,0,1.84,0,56.28,0,112.55,0,168.83,0Z"/>
  <path class="cls-4" d="M232.28,206.93c56.39,0,112.78,0,169.17,0,.33,0,.67,0,1,0,.81-.04.86.49.87,1.1,0,.64-.12,1.11-.9,1.08-.61-.02-1.23,0-1.84,0-112.61,0-225.22,0-337.83,0-.39,0-.78.02-1.17-.01-.7-.05-.7-.56-.7-1.1,0-.54.02-1.04.73-1.06.67-.02,1.34,0,2.01,0,56.22,0,112.44,0,168.66,0Z"/>
  <path class="cls-4" d="M232.26,189.22c56.45,0,112.89,0,169.34,0,.9,0,1.87-.22,1.72,1.25-.06.61-.25.94-.89.94-.33,0-.67,0-1,0-112.89,0-225.79,0-338.68-.02-.76,0-1.93.52-1.89-1.08.02-.76.23-1.16,1.05-1.1.67.04,1.34.01,2.01.01,56.11,0,112.22,0,168.34,0Z"/>
  <path class="cls-4" d="M390.39,80.53c3.39,0,6.78.01,10.17-.01.78,0,1.11.26,1.1,1.06-.01.82-.49.87-1.1.87-2.68,0-5.35-.02-8.03,0-1.2,0-1.63-.93-2.34-1.53l.2-.39Z"/>
  <path class="cls-4" d="M64.88,80.54c1.5,0,3,0,4.5,0,.26,0,.58-.1.75.19.22.39-.12.59-.34.83-.55.6-1.18.92-2.04.91-2.45-.05-4.89-.01-7.34-.02-.6,0-1.25.14-1.28-.84-.03-.95.45-1.1,1.24-1.08,1.5.04,3,.01,4.5,0Z"/>
  <path class="cls-4" d="M397.73,186.98c-1.5,0-3,0-4.51,0-.32,0-.75.11-.82-.33-.03-.2.22-.47.39-.67.49-.56,1.05-.9,1.87-.89,2.5.05,5.01.04,7.51,0,.74,0,1.16.14,1.15.99-.01.8-.47.89-1.09.89-1.5,0-3,0-4.51,0Z"/>
  <path class="cls-4" d="M68.19,182.9c-2.18,0-4.18-.03-6.18.01-.89.02-1.17-.33-1.15-1.18.02-.79.31-1.12,1.1-1.07,2.22.14,4.76-.73,6.23,2.24Z"/>
  <path class="cls-4" d="M396.11,182.89c1.64-1.98,4.63-2.87,6.63-2.23.68.22.55.73.57,1.22.03.56-.09,1.01-.78,1.01-2.04,0-4.08,0-6.42,0Z"/>
  <path class="cls-4" d="M60.86,185.46c2.4-.73,4.86-.17,7.28-.31,1.02-.06,2.1-.24,3.03.49.44.35.91.64,1.17,1.15-3.43.02-6.86.02-10.29.09-1.11.02-1.01-.77-1.19-1.42Z"/>
  <path class="cls-4" d="M394.38,84.69c2.28,0,4.42,0,6.55,0,.47,0,.73.26.7.73-.03.47.21,1.03-.35,1.36-1.49.9-5.71-.27-6.9-2.09Z"/>
  <path class="cls-4" d="M66.37,84.69c-1.6,1.97-4.56,2.81-6.64,2.17-.7-.21-.55-.72-.58-1.2-.04-.57.1-.98.8-.98,2.05.01,4.09,0,6.42,0Z"/>
  <path class="cls-4" d="M61.1,175.7c.87.87,1.69,1.69,2.54,2.54-2.68.72-3.1.32-2.54-2.54Z"/>
  <path class="cls-4" d="M400.52,178.36c1-.9,1.79-1.62,2.55-2.31.72,2.27.39,2.64-2.55,2.31Z"/>
  <path class="cls-4" d="M401.43,91.91c-.84-.92-1.62-1.76-2.37-2.57,2.5-.71,2.87-.36,2.37,2.57Z"/>
  <path class="cls-4" d="M61.88,89.25c-1.01.81-1.8,1.45-2.5,2.02-.78-1.86-.39-2.31,2.5-2.02Z"/>
  <path class="cls-4" d="M400.41,36.65c2.19.09,3.82,1.69,3.77,3.67-.05,1.94-1.62,3.48-3.76,3.51-3.63.05-7.26.02-10.89.02-47.23,0-94.46,0-141.7,0h0c-50.53,0-101.05,0-151.58,0-2.38,0-3.67-.73-4.3-2.45-.55-1.5-.07-2.74,1.02-3.79.91-.88,2.07-.96,3.28-.96"/>
  <path class="cls-4" d="M309.98,241.92c.19-.33.38-.69.84-.69,1.76,0,3.51,0,5.27,0,.5,0,.71.48,1.07.71-.8,5.68-1.64,11.36-2.36,17.05-.21,1.66-.88,2.43-2.58,2.2-.49-.07-1,0-1.5,0-3.35,0-3.32,0-2.85-3.38.73-5.3,1.42-10.6,2.12-15.9Z"/>
  <path class="cls-4" d="M233.37,271.78c.71-2.52,1.61-4.99,2.07-7.58,1.02-3.51,2.05-7.03,3.07-10.54.15,0,.29,0,.44-.01,0,3.52,0,7.05,0,10.57-.32,2.52-.12,5.05-.05,7.57-1.12,1.71-2.84.55-4.25.85-.63.14-1.24,0-1.29-.86Z"/>
  <path class="cls-4" d="M101.01,271.76c.38-2.52.94-5.01,1.05-7.56,1.28-7.39,2.13-14.84,3.1-22.27.26-.25.33-.72.83-.72,1.71.02,3.42.01,5.13.04.42,0,.66.36.91.66-1.08,7.41-2.26,14.81-3.07,22.27-.34,2.53-.69,5.06-1.03,7.58-.51,1.72-.6,3.5-.81,5.27-.15,1.26-.63,1.91-2.01,1.8-1.27-.09-2.56-.05-3.84.04-.97.07-1.14-.29-1.01-1.16.3-1.97.52-3.96.77-5.94Z"/>
  <path class="cls-4" d="M341.04,271.77c.52-2.5.89-5.03,1.14-7.57,1.13-7.41,2.25-14.81,3.09-22.26.19-.34.38-.72.83-.72,1.72,0,3.43,0,5.15.04.43,0,.67.35.87.69-1.12,7.4-2.24,14.79-3.04,22.23-.59,2.49-.84,5.03-1.01,7.58-.65,1.8-.65,3.71-.94,5.57-.18,1.13-.67,1.53-1.76,1.49-1.22-.05-2.46-.09-3.68.01-1.33.11-1.46-.49-1.28-1.59.29-1.81.67-3.62.64-5.47Z"/>
  <path class="cls-4" d="M174.31,264.27c-.33,2.52-.65,5.05-.98,7.57-.29,1.81-.6,3.61-.85,5.43-.15,1.05-.6,1.6-1.74,1.56-1.28-.05-2.56-.02-3.84,0-1.08.01-1.49-.41-1.31-1.54.29-1.8.46-3.63.68-5.45.37-2.54.93-5.05,1.05-7.62.47-2.4.5-4.89.97-7.25.83-4.21,1.24-8.46,1.92-12.68.12-.77.17-1.55.25-2.32,1.41-1.02,5.58-1.06,6.88-.07-.74,5.54-1.49,11.09-2.24,16.63-.26,1.92-.53,3.84-.79,5.76Z"/>
  <path class="cls-4" d="M270.31,271.79c.79-2.5,1.63-4.99,2.13-7.58,1.03-3.56,2.05-7.11,3.08-10.67.1,0,.2.01.3.02,0,3.57,0,7.14,0,10.71,0,2.52,0,5.04.01,7.55-.17.42-.38.81-.91.81-1.26,0-2.52.01-3.78,0-.55,0-.74-.39-.83-.85Z"/>
  <path class="cls-4" d="M70.86,40.32c.04,2.72-2.21,5-4.97,5.03-2.78.03-5.06-2.16-5.09-4.9-.03-2.73,2.2-5,4.96-5.04,2.74-.04,5.06,2.2,5.11,4.91Z"/>
  <path class="cls-2" d="M362.62,133.05c-.04,12.43-4.08,22.01-11.74,30-4.54,4.73-10.09,8.04-16.32,10.12-1.89.63-3.87.54-5.79.2-2.29-.4-3.93-2.35-4.06-4.7-.09-1.61,0-3.23-.04-4.85-.01-.73.19-1.03,1.01-1.16,10.58-1.65,17.97-7.52,22.41-17.16,1.84-3.99,2.6-8.26,2.33-12.63-.42-6.74-2.76-12.73-7.36-17.78-4.34-4.77-9.61-7.82-15.93-9.13-2.46-.51-2.45-.59-2.45-3.17,0-.67,0-1.34,0-2.01.05-3.23,2.13-5.15,5.32-5.48,5.66-.59,10.23,2,14.56,4.93,8.85,5.98,14.52,14.28,17.01,24.7.74,3.09,1.16,6.21,1.06,8.13Z"/>
  <path class="cls-5" d="M367.91,95.45c3.07,0,5.8-.04,8.53,0,3.76.07,6.36,2.22,8.41,5.08,3.25,4.53,4.84,9.75,6.05,15.11,1.2,5.29,2.06,10.66,2.16,16.06.21,12.38-1.83,24.32-7.84,35.34-1.05,1.92-2.46,3.59-4.26,4.88-1.49,1.07-3.14,1.67-5,1.66-2.71,0-5.42,0-8.5,0,9.44-11.58,14.43-24.46,14.49-39.1.06-14.59-4.77-27.48-14.04-39.05Z"/>
  <path class="cls-1" d="M346.48,173.58c13.44-9.61,20.99-22.36,21.18-38.88.18-16.59-7.23-29.46-20.61-39.04.22-.56.67-.28,1.01-.28,3.74,0,7.48.05,11.22-.02,1.28-.02,2.13.36,3.01,1.32,7.17,7.8,11.85,16.89,13.72,27.26,2.8,15.54-.41,29.87-9.58,42.8-1.49,2.1-3.23,3.98-4.91,5.92-.44.51-.92.93-1.69.93-4.45-.02-8.91,0-13.36,0Z"/>
  <path class="cls-3" d="M324.65,151.91c0-.28.04-.56,0-.84-.47-3.07.34-4.96,3.55-6.47,3.7-1.73,5.61-5.32,5.76-9.66.21-6.13-2.74-10.1-8.16-12.46-.86-.37-1.18-.76-1.17-1.68.06-2.84.05-5.69,0-8.53-.02-1.14.37-1.51,1.5-1.23,10.04,2.47,16.54,8.68,18.64,18.78,2.59,12.45-5.56,24.89-18.74,27.61-.98.2-1.46-.07-1.4-1.18.07-1.45.02-2.9.02-4.35Z"/>
  <path class="cls-5" d="M324.66,134.2c0-1.83.02-3.66,0-5.5-.02-1.03.28-1.17,1.15-.62,4.2,2.67,4.28,9.39.12,12.2-.31.21-.61.56-1.03.32-.35-.21-.22-.59-.22-.91,0-1.83,0-3.66,0-5.5h0Z"/>
  <path class="cls-2" d="M97.78,134.26c.01-11.22,4.07-20.85,11.79-28.89,4.22-4.4,9.32-7.65,15.11-9.6,2.37-.8,4.99-.63,7.44-.02,1.94.49,3.12,2.02,3.37,3.99.21,1.65.39,3.41.04,5-.48,2.13-2.7,1.21-4.11,1.64-11.04,3.42-18.04,10.58-20.74,21.86-3.67,15.38,7.03,31.16,22.06,34.1,2.87.56,2.86.62,2.86,3.59,0,.28-.03.56,0,.84.63,5.83-3.69,8.38-9.27,6.49-15.12-5.11-24.37-15.6-27.81-31.21-.57-2.57-.79-5.15-.74-7.78Z"/>
  <path class="cls-5" d="M93.17,173.74c-3.37,0-6.37.09-9.37-.03-2.67-.1-4.72-1.54-6.44-3.49-3.29-3.73-5.02-8.26-6.47-12.91-4.81-15.41-4.69-30.86-.16-46.29,1.23-4.18,2.85-8.22,5.74-11.61,2.23-2.61,4.96-4.06,8.47-3.95,2.01.06,4.02,0,6.03,0,.36,0,.84-.24,1.05.24.2.46-.3.66-.52.95-4.24,5.57-7.68,11.59-9.9,18.24-1.48,4.46-2.47,9.02-2.91,13.72-.25,2.61-.37,5.22-.27,7.82.29,6.96,1.71,13.71,4.31,20.18,2.15,5.35,5.03,10.28,8.55,14.85.53.69,1.12,1.34,1.89,2.26Z"/>
  <path class="cls-1" d="M113.09,95.44c-26.94,18.38-27.94,59.71,1.27,78.08-.24.5-.67.25-1.02.25-3.96,0-7.92-.04-11.88.01-1.1.02-1.89-.31-2.63-1.11-7.48-8.02-12.54-17.35-14.46-28.14-2.89-16.25.81-30.98,10.63-44.31,2.73-3.71,5.69-4.57,10.31-4.84,3.19-.19,5.18.06,7.77.06Z"/>
  <path class="cls-3" d="M135.59,116.62c0,.22-.03.45,0,.67.47,3.1-.26,5.09-3.55,6.66-3.61,1.73-5.44,5.33-5.57,9.62-.18,5.97,2.52,9.97,7.9,12.28.98.42,1.27.98,1.25,2.02-.08,2.68-.08,5.36,0,8.03.04,1.35-.26,1.78-1.71,1.41-9.79-2.48-16.05-8.58-18.21-18.41-2.74-12.47,5.4-25.21,18.76-27.9.79-.16,1.16.09,1.15.92-.02,1.56,0,3.12,0,4.69h0Z"/>
  <path class="cls-5" d="M135.6,134.34c0,1.78,0,3.56,0,5.34,0,.31.14.7-.23.89-.36.18-.61-.1-.89-.28-4.05-2.73-4.1-9.2-.08-12.03.3-.21.6-.6,1.02-.35.33.2.19.6.19.92,0,1.84,0,3.67,0,5.51h0Z"/>
  <path class="cls-3" d="M259.12,173.39c-13.17.17-26.39.24-39.55-.03,7.34-26.09,15.17-52.04,22.25-78.2,13.17.01,26.34.03,39.52.04-7.21,26.11-14.87,52.11-22.21,78.19Z"/>
  <path class="cls-5" d="M241.82,95.16c-.89,3.3-1.77,6.61-2.69,9.91-1.36,4.87-2.74,9.72-4.14,14.58-1.51,5.27-3.05,10.53-4.57,15.8-1.37,4.75-2.74,9.5-4.1,14.26-1.54,5.37-3.07,10.75-4.6,16.13-.72,2.51-1.44,5.02-2.16,7.53-.39.04-.77.11-1.16.11-12.22,0-24.44,0-36.66,0-.44,0-.87-.1-1.31-.16.45-3.03,1.61-5.86,2.36-8.81.75-2.94,1.78-5.8,2.6-8.73,1.36-4.86,2.6-9.75,3.97-14.61,1.68-5.95,3.45-11.88,5.17-17.82.98-3.39,1.95-6.77,2.94-10.16.79-2.71,1.62-5.4,2.37-8.12.92-3.29,1.69-6.63,2.86-9.85.44-.03.88-.1,1.33-.1,12.59.01,25.19.03,37.78.05Z"/>
  <path class="cls-1" d="M202.71,95.22c-1.17,3.22-1.94,6.56-2.86,9.85-.76,2.72-1.59,5.41-2.37,8.12-.98,3.38-1.95,6.77-2.94,10.16-1.72,5.94-3.49,11.87-5.17,17.82-1.37,4.86-2.61,9.75-3.97,14.61-.82,2.92-1.85,5.79-2.6,8.73-.75,2.95-1.91,5.78-2.36,8.81-4.46.25-8.92.28-13.37,0-3.36-.21-5.71-3.14-5.72-6.69-.01-10.76,0-21.52,0-32.29,0-10.71,0-21.41,0-32.12,0-4.32,2.63-7.09,6.9-7.11,11.21-.04,22.43-.02,33.64-.01.27,0,.55.07.82.11Z"/>
  <path class="cls-2" d="M259.12,173.39c2.68-9.37,5.38-18.74,8.04-28.11,1.66-5.85,3.22-11.72,4.9-17.56,2.36-8.2,4.81-16.38,7.18-24.58.76-2.63,1.4-5.29,2.09-7.93,4.18-.02,8.37-.14,12.54-.02,3.2.09,5.72,2.75,5.97,5.94.05.61.03,1.23.03,1.84,0,20.86,0,41.71,0,62.57,0,5.52-2.44,7.95-7.96,7.95-10.38,0-20.75,0-31.13,0-.56,0-1.11-.05-1.67-.08Z"/>
  <path class="cls-4" d="M230.41,86.25c20.71,0,41.42-.01,62.13,0,8.13,0,14.17,4.78,15.86,12.42.29,1.32.3,2.66.3,4,0,21.04.01,42.07,0,63.11,0,10-6.46,16.48-16.41,16.48-41.14,0-82.29,0-123.43,0-8.26,0-14.37-4.76-16.03-12.41-.27-1.27-.26-2.55-.26-3.83,0-21.09.18-42.19-.09-63.28-.11-8.87,6.58-16.65,16.64-16.56,20.43.2,40.86.06,61.3.06ZM291.92,173.48c5.53,0,7.96-2.43,7.96-7.95,0-20.86,0-41.71,0-62.57,0-.61.02-1.23-.03-1.84-.25-3.19-2.77-5.85-5.97-5.94-4.18-.12-8.36,0-12.54.02-13.17-.01-26.34-.03-39.52-.04-12.59-.02-25.19-.03-37.78-.05-.44,0-.88.06-1.33.1-.27-.04-.55-.11-.82-.11-11.21,0-22.43-.03-33.64.01-4.28.02-6.9,2.78-6.9,7.11,0,10.71,0,21.41,0,32.12,0,10.76,0,21.52,0,32.29,0,3.56,2.36,6.49,5.72,6.69"/>
</svg>